<svg 
 xmlns="http://www.w3.org/2000/svg"
 xmlns:xlink="http://www.w3.org/1999/xlink"
 width="167px" height="32px">
<path fill-rule="evenodd"  fill="none"
 d="M0.0,0.0 L167.0,0.0 L167.0,31.0 L0.0,31.0 L0.0,0.0 Z"/>
<path fill-rule="evenodd"  fill="rgb(59, 177, 73)"
 d="M164.324,17.425 C164.173,17.425 163.740,17.425 162.702,17.425 C160.979,17.415 160.500,16.510 160.807,14.716 C161.109,13.6 162.456,5.371 162.596,4.574 L166.591,4.574 L164.324,17.425 ZM149.411,17.596 C144.602,17.590 142.665,15.43 143.406,10.787 C144.167,6.525 147.3,3.986 151.814,3.977 C156.707,3.986 158.621,6.523 157.874,10.787 C157.116,15.46 154.306,17.590 149.411,17.596 ZM151.226,7.312 C148.916,7.316 147.536,8.679 147.163,10.787 C146.791,12.914 147.698,14.227 150.5,14.232 C152.404,14.227 153.775,12.917 154.154,10.787 C154.528,8.652 153.625,7.316 151.226,7.312 ZM134.971,30.159 C133.248,30.150 132.772,29.238 133.75,27.450 C133.385,25.699 136.885,5.878 137.113,4.574 L141.109,4.574 L136.594,30.159 C136.443,30.159 136.13,30.159 134.971,30.159 ZM129.107,30.159 C127.387,30.150 126.912,29.238 127.215,27.450 L129.183,16.298 L126.25,16.298 L126.614,12.962 L129.772,12.962 L129.784,12.895 C130.526,8.697 131.160,5.104 131.251,4.574 L135.11,4.574 L130.495,30.159 C130.372,30.159 130.35,30.159 129.107,30.159 ZM120.181,8.780 L120.169,8.847 C120.169,8.852 119.839,10.735 119.459,12.902 L119.447,12.969 L124.694,12.969 L124.100,16.335 L118.857,16.335 L118.846,16.402 C118.644,17.567 118.472,18.538 118.390,18.999 C118.73,20.818 118.826,21.485 120.518,21.490 C120.779,21.490 121.61,21.473 121.364,21.447 C124.473,21.161 126.379,20.711 127.20,20.556 C127.31,20.685 127.51,21.13 127.32,21.445 C127.18,21.675 126.998,21.891 126.964,22.94 C126.768,23.162 126.193,23.831 124.536,24.191 C123.112,24.488 121.667,24.638 120.28,24.728 C119.737,24.742 119.441,24.750 119.140,24.750 C116.439,24.742 113.551,23.990 114.311,19.661 L116.825,5.415 L127.792,5.415 L127.200,8.780 L120.181,8.780 ZM106.138,30.159 C104.417,30.150 103.943,29.238 104.246,27.450 L104.995,23.198 L104.873,23.169 C104.519,23.668 103.941,24.34 102.907,24.266 C100.349,24.830 97.312,25.93 94.85,25.179 C93.978,25.181 93.871,25.183 93.767,25.183 C90.851,25.174 87.952,24.136 88.681,19.997 L89.916,13.11 L98.337,13.11 C99.143,13.11 99.278,12.528 99.343,12.163 L99.937,8.792 L90.839,8.792 L91.436,5.415 L104.525,5.415 L103.274,12.516 C102.960,14.220 102.6,16.150 98.514,16.160 L93.314,16.160 L93.305,16.231 C93.305,16.231 93.289,16.352 93.242,16.627 C93.242,16.627 93.220,16.744 93.159,17.96 C93.95,17.448 92.993,18.31 92.827,18.972 C92.458,21.78 93.398,21.843 95.217,21.847 C95.300,21.847 95.390,21.845 95.482,21.841 C100.155,21.677 103.47,21.156 105.403,20.597 L105.457,20.585 L105.467,20.532 C106.606,14.82 108.133,5.421 108.282,4.574 L112.278,4.574 L107.763,30.159 C107.611,30.159 107.179,30.159 106.138,30.159 ZM81.295,7.624 L76.755,7.624 C74.39,7.624 71.518,8.638 70.687,12.207 L70.233,14.418 C71.125,12.995 72.566,12.584 74.638,12.374 C78.188,12.14 83.366,12.552 83.366,12.552 C83.366,12.552 83.294,13.910 82.858,15.596 C82.45,18.740 79.361,20.22 75.937,20.22 L69.150,20.22 L69.76,20.418 L67.20,30.323 C67.20,30.323 63.228,30.323 61.509,30.323 C60.714,30.323 60.15,30.172 59.531,29.758 C59.465,29.703 59.403,29.642 59.342,29.573 L59.342,29.570 C58.960,29.123 58.783,28.434 58.905,27.422 C58.922,27.321 61.934,12.200 61.934,12.200 C63.698,3.367 68.645,0.356 76.571,0.356 L86.984,0.356 C86.984,0.356 86.653,2.241 86.240,4.225 C85.734,6.673 84.19,7.624 81.295,7.624 ZM53.725,7.682 C53.725,7.682 51.520,7.418 49.275,7.509 C45.78,7.687 43.49,9.29 41.521,11.931 C40.341,14.169 39.804,18.137 39.777,19.49 C39.627,23.676 43.116,23.249 44.405,23.249 C46.183,23.249 48.857,22.575 49.734,18.739 C48.504,18.739 44.151,18.739 44.151,18.739 C44.151,18.739 44.502,17.108 44.629,16.447 C44.967,14.733 45.708,12.207 49.401,12.207 L53.780,12.204 C57.506,12.204 58.880,14.340 58.297,17.596 C58.74,18.839 57.388,23.558 53.697,27.29 C53.697,27.29 50.113,30.605 43.470,30.605 C43.470,30.605 37.651,30.923 34.296,27.988 C34.296,27.988 29.336,24.384 31.749,14.852 C31.749,14.852 32.841,8.327 37.329,4.430 C37.329,4.430 41.933,0.15 50.136,0.166 C50.136,0.166 53.887,0.177 56.602,0.957 C58.362,1.470 59.348,1.949 59.348,1.949 C59.348,1.949 58.589,4.440 57.473,6.75 C57.473,6.75 56.366,7.964 53.725,7.682 ZM23.878,14.937 C23.878,14.937 29.907,15.842 28.678,21.966 C28.678,21.966 27.926,26.247 24.160,28.343 C22.84,29.633 19.332,30.342 14.683,30.342 C14.683,30.342 6.414,30.342 4.240,30.342 C1.798,30.342 0.456,29.473 0.962,26.924 C1.172,25.854 3.143,16.20 4.668,8.295 C5.670,3.220 8.314,0.394 13.736,0.394 L21.476,0.394 C24.592,0.394 26.437,0.835 27.979,1.782 C31.151,3.739 30.220,8.59 30.220,8.59 C29.120,13.859 23.878,14.937 23.878,14.937 ZM10.666,23.10 C10.666,23.10 14.278,23.10 16.641,23.10 C19.303,23.10 20.85,21.729 20.250,20.726 C20.641,18.311 18.408,18.289 17.114,18.289 C16.193,18.289 11.607,18.289 11.607,18.289 L10.666,23.10 ZM19.38,7.665 L15.324,7.665 C14.4,7.665 13.509,8.414 13.330,9.311 C13.155,10.204 12.880,11.811 12.880,11.811 C12.880,11.811 14.327,11.811 17.56,11.811 C19.781,11.811 21.37,11.310 21.273,9.617 C21.560,7.577 19.386,7.665 19.38,7.665 ZM145.854,23.901 L158.512,23.901 C159.187,23.898 159.350,23.466 159.430,23.25 L159.555,22.316 L159.567,22.246 L146.164,22.246 L146.723,19.69 L164.64,19.69 L163.250,23.677 C162.893,25.622 162.11,26.915 158.702,26.927 L149.287,26.927 L149.180,27.501 C149.29,28.375 149.617,28.818 150.907,28.820 L163.89,28.820 L162.946,29.635 C162.633,31.354 161.611,31.992 159.821,32.2 L150.145,32.2 C146.631,31.992 144.643,30.819 145.343,26.792 L145.854,23.901 Z"/>
</svg>