<svg xmlns="http://www.w3.org/2000/svg" width="200" height="201">
    <path fill="none" d="M0 0h200v200H0V0z"/>
    <path fill-rule="evenodd" fill="#FFD333" d="M145.84 166.1c.711-8.414-.711-16.206-3.358-23.336 7.13 2.647 14.922 4.069 23.336 3.358 22.897-2.98 34.177-20.327 34.179-45.568.001-25.238-11.281-42.652-34.181-45.629-8.411-.708-16.203.714-23.334 3.361 2.648-7.135 4.067-14.925 3.359-23.336C142.862 12.48 125.515.768 100.276.769 75.33.769 57.627 12.48 54.647 34.951c-.709 8.411.713 16.203 3.853 23.336-7.625-2.648-14.67-4.069-23.828-3.361C11.771 57.904.49 75.318.489 100.556c.003 25.241 11.282 42.588 34.179 45.567 9.152.711 16.206-.711 23.732-3.359-3.043 7.131-4.465 14.923-3.754 23.336 2.979 22.898 20.694 34.18 45.626 34.179 25.243 0 42.591-11.279 45.568-34.179"/>
</svg>
