<svg xmlns="http://www.w3.org/2000/svg" width="201" height="201">
    <path fill="none" d="M.999 0H201v200H.999V0z"/>
    <path fill-rule="evenodd" fill="#46C0F0" d="M163.887 111.712c-25.587 0-57.919-9.103-62.771-10.512 1.406 5.21 10.514 37.177 10.514 62.769 0 27.732-4.793 37.013-10.703 37.013-5.737 0-10.701-9.281-10.701-37.013 0-25.604 9.112-57.799 10.512-62.771-4.858 1.412-37.186 10.515-62.769 10.515-27.732 0-37.013-4.793-37.013-9.813 0-5.92 9.281-11.591 37.013-11.591 25.587 0 57.919 9.103 62.771 10.511-1.401-4.821-10.515-37.167-10.515-62.31 0-28.19 4.955-37.13 10.704-37.13 5.907 0 10.7 8.94 10.7 37.13 0 25.134-9.106 57.473-10.511 62.312 4.858-1.411 37.185-10.514 62.769-10.514 27.731 0 37.013 4.792 37.013 10.802 0 5.812-9.282 10.602-37.013 10.602z"/>
</svg>
